Coordinates
version=1
nRows=7
nColumns=42
inDegrees=yes

Units are S.I. units (second, meters, Newtons, ...)
If the header above contains a line with 'inDegrees', this indicates whether rotational values are in degrees (yes) or radians (no).

endheader
time	pelvis_tilt	pelvis_list	pelvis_rotation	pelvis_tx	pelvis_ty	pelvis_tz	hip_flexion_r	hip_adduction_r	hip_rotation_r	knee_angle_r	knee_adduction_r	knee_angle_r_beta	ankle_angle_r	subtalar_angle_r	mtp_angle_r	hip_flexion_l	hip_adduction_l	hip_rotation_l	knee_angle_l	knee_adduction_l	knee_angle_l_beta	ankle_angle_l	subtalar_angle_l	mtp_angle_l	lumbar_extension	lumbar_bending	lumbar_rotation	arm_flex_r	arm_add_r	arm_rot_r	elbow_flex_r	pro_sup_r	wrist_flex_r	wrist_dev_r	arm_flex_l	arm_add_l	arm_rot_l	elbow_flex_l	pro_sup_l	wrist_flex_l	wrist_dev_l
      1.44000000	      7.27017669	     -2.93791568	      7.28966063	     -1.01239490	      0.84975911	      0.21517952	     23.87173042	      4.35682567	    -25.52893441	     27.25436711	    -10.82842727	      0.47567844	      4.35055041	      9.58594968	     -7.50738100	    -21.16811246	     -0.79772695	     -1.48061755	     27.82139686	     -6.23519299	      0.48557498	     23.86275716	     10.32298648	     -7.50738100	    -27.53488288	      6.64646110	     -2.05816823	     -1.63670180	    -12.29390156	      5.61395872	     29.02516820	     90.00000001	      0.00000000	      0.00000000	     22.27441646	    -18.74082671	      7.05680404	     58.01134896	     90.00000001	      0.00000000	      0.00000000
      1.45000000	      7.20860218	     -3.39221156	      6.94477106	     -0.99844946	      0.85068184	      0.21736880	     23.49648893	      5.40889456	    -23.64597280	     28.35588904	    -10.48139223	      0.49490363	      4.00698628	      5.88708088	     -7.50684028	    -20.07563287	     -1.54858941	     -2.23653608	     31.15498871	     -6.26429211	      0.54375713	     21.70267020	      9.92129299	     -7.50684028	    -27.43930975	      7.10104408	     -1.68903344	     -1.09643579	    -12.39836037	      5.48805487	     28.84802663	     90.00000001	      0.00000000	      0.00000000	     21.26424837	    -18.39331505	      6.53299242	     57.56180855	     90.00000001	      0.00000000	      0.00000000
      1.46000000	      7.32492594	     -3.87565054	      6.63564161	     -0.98422600	      0.85218485	      0.21966972	     22.73613789	      6.43889076	    -22.91314514	     29.00535782	    -10.49579239	      0.50623899	      4.44350792	      5.02052176	     -7.50663166	    -19.03696788	     -2.41648946	     -2.96071740	     34.61662432	     -6.28883244	      0.60417407	     19.12150309	      9.11283887	     -7.50663166	    -27.49788952	      7.56662387	     -1.29257311	     -0.55195404	    -12.53784567	      5.47971756	     28.76702331	     90.00000001	      0.00000000	      0.00000000	     20.24159391	    -18.11190615	      6.24352082	     57.00426874	     90.00000001	      0.00000000	      0.00000000
      1.47000000	      7.52559678	     -4.32265789	      6.35428631	     -0.97006140	      0.85421665	      0.22186415	     21.59223975	      7.39661663	    -22.26500115	     29.22481142	    -10.36435509	      0.51006918	      5.33893182	      4.49625938	     -7.50652631	    -17.93554895	     -3.26011770	     -3.61942905	     38.14352610	     -6.36244744	      0.66573012	     16.35337864	      8.39821351	     -7.50652631	    -27.64038263	      8.00671102	     -0.91711344	      0.04038066	    -12.68560088	      5.47819588	     28.77856338	     90.00000001	      0.00000000	      0.00000000	     19.24692897	    -17.84194589	      6.17102720	     56.30652987	     90.00000001	      0.00000000	      0.00000000
      1.48000000	      7.37263346	     -4.69068208	      5.83728524	     -0.95662668	      0.85587036	      0.22447056	     20.84055606	      8.28081263	    -21.41433411	     29.38579853	    -10.14815835	      0.51287894	      5.68523907	      3.19362596	     -7.50620099	    -16.04911121	     -3.96866785	     -4.54163470	     42.23201202	     -6.48810084	      0.73708766	     13.94159831	      6.59171732	     -7.50620099	    -27.50357962	      8.21826102	     -0.38418086	      0.69854096	    -12.85666271	      5.51151143	     28.77360105	     90.00000001	      0.00000000	      0.00000000	     18.27303759	    -17.51207689	      6.03574002	     55.40944289	     90.00000001	      0.00000000	      0.00000000
      1.49000000	      7.50751275	     -5.09287662	      5.40912675	     -0.94292983	      0.85819168	      0.22704003	     19.42500418	      9.20897694	    -21.11102077	     28.88919943	    -10.05968728	      0.50421165	      6.61577519	      3.44743329	     -7.50608748	    -14.48724337	     -4.82606827	     -5.65996146	     45.99881323	     -6.79865654	      0.80283074	     11.74155690	      5.14340879	     -7.50608748	    -27.63409407	      8.47972514	      0.17208319	      1.34229972	    -13.02961735	      5.53553034	     28.90174662	     90.00000001	      0.00000000	      0.00000000	     17.36605236	    -17.25182976	      6.23279600	     54.43084477	     90.00000001	      0.00000000	      0.00000000
      1.50000000	      7.54581657	     -5.36352541	      4.96810279	     -0.92963615	      0.86048406	      0.22959100	     18.07985357	      9.93229009	    -21.00919419	     28.30910337	    -10.04839741	      0.49408706	      7.49398614	      4.06734628	     -7.50592666	    -12.63918230	     -5.52065404	     -6.80533168	     49.81877053	     -7.24712956	      0.86950158	     10.14421076	      3.10945738	     -7.50592666	    -27.71127461	      8.56043538	      0.72831702	      1.98638385	    -13.16352054	      5.59688127	     29.11019437	     90.00000001	      0.00000000	      0.00000000	     16.54628220	    -16.97640544	      6.51592819	     53.31139667	     90.00000001	      0.00000000	      0.00000000
